<svg width="33" height="33" viewBox="0 0 33 33" fill="none" xmlns="http://www.w3.org/2000/svg">
<path d="M27.936 3.08509C25.8327 2.12004 23.5772 1.40899 21.2189 1.00171C21.176 0.993846 21.1331 1.0135 21.111 1.05276C20.8209 1.5687 20.4996 2.24172 20.2746 2.77075C17.7381 2.391 15.2147 2.391 12.7302 2.77075C12.5052 2.22999 12.1722 1.5687 11.8808 1.05276C11.8587 1.01479 11.8158 0.995135 11.7729 1.00171C9.41594 1.40763 7.16047 2.11868 5.05582 3.08509C5.03758 3.09295 5.02198 3.10604 5.0116 3.12305C0.733461 9.51455 -0.438555 15.749 0.136367 21.906C0.138945 21.9361 0.155896 21.965 0.179293 21.9833C3.00189 24.0561 5.73612 25.3145 8.41949 26.1487C8.46242 26.1618 8.50792 26.1461 8.53525 26.1107C9.16999 25.2439 9.73582 24.3299 10.221 23.3687C10.2496 23.3124 10.2222 23.2456 10.1637 23.2233C9.26621 22.8829 8.41163 22.4678 7.58953 21.9964C7.5245 21.9584 7.51928 21.8654 7.57916 21.8209C7.75215 21.6913 7.9252 21.5564 8.0904 21.4202C8.1203 21.3953 8.16194 21.3901 8.19707 21.4058C13.5977 23.8715 19.4446 23.8715 24.7815 21.4058C24.8166 21.3887 24.8583 21.394 24.8895 21.4188C25.0547 21.555 25.2277 21.6912 25.402 21.8208C25.4618 21.8654 25.4579 21.9584 25.3929 21.9963C24.5708 22.4769 23.7162 22.8828 22.8174 23.222C22.7589 23.2442 22.7329 23.3124 22.7615 23.3686C23.2571 24.3285 23.823 25.2425 24.446 26.1094C24.472 26.146 24.5188 26.1618 24.5617 26.1486C27.2581 25.3145 29.9923 24.0561 32.8149 21.9832C32.8397 21.9649 32.8553 21.9374 32.8579 21.9073C33.546 14.789 31.7054 8.6057 27.9788 3.12428C27.9697 3.10604 27.9541 3.09295 27.936 3.08509ZM11.0276 18.157C9.40163 18.157 8.06184 16.6643 8.06184 14.831C8.06184 12.9977 9.37559 11.5049 11.0276 11.5049C12.6925 11.5049 14.0193 13.0108 13.9933 14.831C13.9933 16.6643 12.6795 18.157 11.0276 18.157ZM21.9928 18.157C20.3669 18.157 19.0271 16.6643 19.0271 14.831C19.0271 12.9977 20.3409 11.5049 21.9928 11.5049C23.6578 11.5049 24.9845 13.0108 24.9586 14.831C24.9586 16.6643 23.6578 18.157 21.9928 18.157Z" fill="white"/>
</svg>
