<svg width="22" height="22" viewBox="0 0 22 22" fill="none" xmlns="http://www.w3.org/2000/svg">
<path d="M18.9112 0H2.98598C2.19405 0 1.43456 0.310803 0.874575 0.864036C0.314594 1.41727 0 2.16761 0 2.95L0 18.6833C0 19.4657 0.314594 20.2161 0.874575 20.7693C1.43456 21.3225 2.19405 21.6334 2.98598 21.6334H18.9112C19.7032 21.6334 20.4627 21.3225 21.0226 20.7693C21.5826 20.2161 21.8972 19.4657 21.8972 18.6833V2.95C21.8972 2.16761 21.5826 1.41727 21.0226 0.864036C20.4627 0.310803 19.7032 0 18.9112 0ZM7.46496 17.1198C7.46513 17.1798 7.45331 17.2393 7.43018 17.2947C7.40706 17.3502 7.37309 17.4006 7.33021 17.4431C7.28733 17.4856 7.23639 17.5193 7.18031 17.5423C7.12422 17.5653 7.0641 17.5771 7.00338 17.5771H5.03636C4.97553 17.5773 4.91528 17.5655 4.85905 17.5426C4.80282 17.5197 4.75174 17.486 4.70873 17.4435C4.66572 17.401 4.63163 17.3506 4.60843 17.295C4.58523 17.2395 4.57337 17.1799 4.57353 17.1198V8.97292C4.57353 8.85165 4.6223 8.73535 4.70909 8.6496C4.79589 8.56385 4.91361 8.51567 5.03636 8.51567H7.00338C7.12591 8.516 7.24331 8.56432 7.32984 8.65003C7.41637 8.73575 7.46496 8.85187 7.46496 8.97292V17.1198ZM6.01925 7.74376C5.65014 7.74376 5.28932 7.63562 4.98242 7.43303C4.67552 7.23043 4.43632 6.94248 4.29507 6.60558C4.15381 6.26868 4.11686 5.89796 4.18887 5.54031C4.26088 5.18265 4.43862 4.85413 4.69962 4.59628C4.96061 4.33842 5.29315 4.16282 5.65516 4.09168C6.01718 4.02054 6.39242 4.05705 6.73343 4.1966C7.07444 4.33615 7.3659 4.57247 7.57097 4.87567C7.77603 5.17887 7.88549 5.53535 7.88549 5.9C7.88549 6.389 7.68887 6.85796 7.33888 7.20373C6.98889 7.5495 6.5142 7.74376 6.01925 7.74376ZM17.7467 17.1518C17.7469 17.2071 17.736 17.2618 17.7146 17.3129C17.6933 17.3639 17.662 17.4103 17.6224 17.4494C17.5829 17.4885 17.5359 17.5194 17.4842 17.5405C17.4325 17.5616 17.3771 17.5723 17.3212 17.5722H15.2061C15.1502 17.5723 15.0948 17.5616 15.0431 17.5405C14.9914 17.5194 14.9444 17.4885 14.9049 17.4494C14.8653 17.4103 14.834 17.3639 14.8127 17.3129C14.7914 17.2618 14.7805 17.2071 14.7806 17.1518V13.3352C14.7806 12.7649 14.9498 10.8376 13.2715 10.8376C11.9713 10.8376 11.7063 12.1565 11.654 12.7489V17.1567C11.6541 17.2672 11.6101 17.3732 11.5316 17.4518C11.4532 17.5305 11.3465 17.5755 11.2348 17.5771H9.19186C9.13604 17.5771 9.08077 17.5662 9.02921 17.5451C8.97766 17.5239 8.93083 17.4929 8.89142 17.4539C8.85201 17.4148 8.82078 17.3685 8.79953 17.3175C8.77829 17.2665 8.76743 17.2119 8.7676 17.1567V8.93728C8.76743 8.88213 8.77829 8.8275 8.79953 8.7765C8.82078 8.7255 8.85201 8.67915 8.89142 8.6401C8.93083 8.60105 8.97766 8.57007 9.02921 8.54893C9.08077 8.52778 9.13604 8.5169 9.19186 8.5169H11.2348C11.3476 8.5169 11.4558 8.56119 11.5356 8.64003C11.6154 8.71886 11.6603 8.82579 11.6603 8.93728V9.64774C12.143 8.93113 12.8584 8.38047 14.385 8.38047C17.7666 8.38047 17.7442 11.5001 17.7442 13.2136L17.7467 17.1518Z" fill="white"/>
</svg>
